<svg width="24" height="24" viewBox="0 0 24 24" fill="none" xmlns="http://www.w3.org/2000/svg">
  <rect width="24" height="24" rx="10" fill="white"/>
  <path fill-rule="evenodd" clip-rule="evenodd" d="M11.9999 5.00228C11.4465 5.00228 10.9979 5.45087 10.9979 6.00423V10.9981H6.01514C5.46177 10.9981 5.01318 11.4467 5.01318 12.0001C5.01318 12.5535 5.46177 13.0021 6.01514 13.0021H10.9979V17.9955C10.9979 18.5488 11.4465 18.9974 11.9999 18.9974C12.5533 18.9974 13.0018 18.5488 13.0018 17.9955V13.0021H18.0112C18.5646 13.0021 19.0132 12.5535 19.0132 12.0001C19.0132 11.4467 18.5646 10.9981 18.0112 10.9981H13.0018V6.00423C13.0018 5.45087 12.5533 5.00228 11.9999 5.00228Z" fill="#313131"/>
</svg>
