<svg width="24" height="24" viewBox="0 0 24 24" fill="none" xmlns="http://www.w3.org/2000/svg">
  <rect width="24" height="24" rx="10" fill="white"/>
  <path fill-rule="evenodd" clip-rule="evenodd" d="M10.998 7.0415C10.998 6.48814 11.4466 6.03955 12 6.03955C12.5534 6.03955 13.002 6.48814 13.002 7.0415V14.5782L15.8954 11.6847C16.2867 11.2934 16.9211 11.2934 17.3124 11.6847C17.7037 12.076 17.7037 12.7104 17.3124 13.1017L12.7086 17.7054C12.513 17.9011 12.2565 17.9989 12.0001 17.9989C11.7436 17.9989 11.4872 17.9011 11.2915 17.7054L6.6941 13.108C6.30281 12.7167 6.30281 12.0823 6.6941 11.691C7.08539 11.2998 7.71979 11.2998 8.11108 11.691L10.998 14.578V7.0415Z" fill="#313131"/>
</svg>
