<svg width="18" height="18" viewBox="0 0 18 18" fill="none" xmlns="http://www.w3.org/2000/svg">
  <path fill-rule="evenodd" clip-rule="evenodd" d="M16.998 7.99438C17.5514 7.99438 18 8.44297 18 8.99634C18 9.5497 17.5514 9.99829 16.998 9.99829L3.42187 9.99829L9.71046 16.2869C10.1017 16.6782 10.1017 17.3126 9.71046 17.7038C9.31917 18.0951 8.68477 18.0951 8.29348 17.7038L0.2949 9.70527C0.0770298 9.4874 -0.0195278 9.19415 0.00522384 8.90947C0.0248257 8.6827 0.1214 8.46133 0.294944 8.28779L8.28927 0.293465C8.68056 -0.0978221 9.31496 -0.0978221 9.70624 0.293465C10.0975 0.684752 10.0975 1.31915 9.70624 1.71044L3.4223 7.99438L16.998 7.99438Z" fill="#313131"/>
</svg>
