<svg width="1em" height="1em" viewBox="0 0 18 18" xmlns="http://www.w3.org/2000/svg">
  <path fill="currentColor"
    d="M16 0.000335693H2C0.9 0.000335693 0 0.900336 0 2.00034V16.0003C0 17.1003 0.9 18.0003 2 18.0003H16C17.1 18.0003 18 17.1003 18 16.0003V2.00034C18 0.900336 17.1 0.000335693 16 0.000335693ZM16 16.0003H2V2.00034H16V16.0003ZM3.2 4.70034H8.2V6.20034H3.2V4.70034ZM10 12.8003H15V14.3003H10V12.8003ZM10 10.2003H15V11.7003H10V10.2003ZM5 15.0003H6.5V13.0003H8.5V11.5003H6.5V9.50034H5V11.5003H3V13.0003H5V15.0003ZM11.1 7.90034L12.5 6.50034L13.9 7.90034L15 6.90034L13.6 5.50034L15 4.10034L13.9 3.00034L12.5 4.40034L11.1 3.00034L10 4.10034L11.4 5.50034L10 6.90034L11.1 7.90034Z" />
</svg>
