<svg width="14" height="8" viewBox="0 0 14 8" fill="none" xmlns="http://www.w3.org/2000/svg">
<path fill-rule="evenodd" clip-rule="evenodd" d="M13.6934 0.303781C13.3022 -0.0875064 12.6678 -0.0875072 12.2765 0.30378L6.99977 5.58049L1.73058 0.3113C1.3393 -0.0799872 0.704894 -0.0799877 0.313607 0.311299C-0.0776802 0.702586 -0.0776801 1.33699 0.313607 1.72827L6.28306 7.69773C6.28576 7.70049 6.28849 7.70325 6.29123 7.706C6.36234 7.7771 6.44147 7.83528 6.52571 7.88054C6.90508 8.08449 7.38817 8.02635 7.70841 7.7061C7.71343 7.70109 7.71837 7.69604 7.72326 7.69095L13.6934 1.72076C14.0847 1.32947 14.0847 0.695068 13.6934 0.303781Z" />
</svg>
