<svg width="25" height="25" viewBox="0 0 25 25" fill="none" xmlns="http://www.w3.org/2000/svg">
  <path fill-rule="evenodd" clip-rule="evenodd" d="M21.6897 21.4411C22.081 21.0498 22.081 20.4154 21.6897 20.0242L14.4154 12.7499L21.6897 5.47559C22.081 5.08431 22.081 4.4499 21.6897 4.05862C21.2984 3.66733 20.664 3.66733 20.2727 4.05862L12.9984 11.3329L5.72416 4.0586C5.33287 3.66731 4.69847 3.66731 4.30718 4.0586C3.9159 4.44989 3.9159 5.08429 4.30718 5.47558L11.5815 12.7499L4.30714 20.0242C3.91585 20.4155 3.91585 21.0499 4.30714 21.4411C4.69842 21.8324 5.33283 21.8324 5.72411 21.4411L12.9984 14.1668L20.2727 21.4411C20.664 21.8324 21.2984 21.8324 21.6897 21.4411Z" fill="#313131"/>
</svg>
