<svg width="1rem" height="1rem" viewBox="0 0 15 15" fill="none" xmlns="http://www.w3.org/2000/svg">
  <path fill-rule="evenodd" clip-rule="evenodd" d="M6.7194 12.4549L12.9271 12.4549L12.9271 6.24718L6.7194 6.24718L6.7194 12.4549ZM5.16748 13.2308C5.16748 13.6594 5.51489 14.0068 5.94344 14.0068L13.703 14.0068C14.1316 14.0068 14.479 13.6594 14.479 13.2308L14.479 5.47122C14.479 5.04267 14.1316 4.69526 13.703 4.69526L5.94344 4.69526C5.51489 4.69526 5.16748 5.04267 5.16748 5.47122L5.16748 13.2308Z" fill="currentColor"/>
  <path fill-rule="evenodd" clip-rule="evenodd" d="M4.31068 7.79915H2.03092L2.03092 1.59147L8.2386 1.59147V3.91148H9.79052V0.81551C9.79052 0.38696 9.44311 0.0395508 9.01456 0.0395508H1.25496C0.826412 0.0395508 0.479004 0.38696 0.479004 0.815511V8.57511C0.479004 9.00366 0.826413 9.35107 1.25496 9.35107H4.31068V7.79915Z" fill="currentColor"/>
</svg>
