<svg
  width="77"
  height="33"
  viewBox="0 0 77 33"
  fill="none"
  xmlns="http://www.w3.org/2000/svg"
>
  <path
    d="M35.28 24.088V20.26H37.92C38.6093 20.26 39.2253 20.1647 39.768 19.974C40.3253 19.7687 40.7947 19.4827 41.176 19.116C41.5573 18.7347 41.8507 18.28 42.056 17.752C42.2613 17.2093 42.364 16.6007 42.364 15.926C42.364 15.222 42.2613 14.606 42.056 14.078C41.8507 13.5353 41.5573 13.088 41.176 12.736C40.7947 12.3693 40.3253 12.098 39.768 11.922C39.2253 11.7313 38.6093 11.636 37.92 11.636H35.28V7.808H37.744C39.196 7.808 40.4647 8.01333 41.55 8.424C42.65 8.83467 43.5667 9.40667 44.3 10.14C45.0333 10.8587 45.5833 11.6947 45.95 12.648C46.3167 13.6013 46.5 14.6133 46.5 15.684V16.168C46.5 17.1507 46.3167 18.1187 45.95 19.072C45.5833 20.0107 45.0333 20.8613 44.3 21.624C43.5667 22.372 42.65 22.9733 41.55 23.428C40.4647 23.868 39.196 24.088 37.744 24.088H35.28ZM31.628 24.088V7.808H35.72V24.088H31.628ZM48.751 24V7.94H52.711V24H48.751ZM52.271 24V20.656H59.047V24H52.271ZM52.271 17.51V14.166H58.585V17.51H52.271ZM52.271 11.284V7.94H58.915V11.284H52.271ZM60.2746 24L65.5986 15.464L65.6426 15.816L60.7146 7.94H65.2026L67.9526 12.582H68.5246L71.1866 7.94H75.5426L70.6366 15.86L70.5706 15.508L76.0706 24H71.5826L68.3046 18.698H67.7326L64.6306 24H60.2746Z"
    fill="black"
  />
  <circle
    cx="12"
    cy="16"
    r="12"
    fill="black"
  />
</svg>
