<svg width="24" height="25" viewBox="0 0 24 25" fill="none" xmlns="http://www.w3.org/2000/svg">
  <circle cx="12" cy="12.97" r="12" fill="#DFE4ED"/>
  <path d="M10.9473 15.0417V14.9472C10.9539 14.3308 11.0152 13.8402 11.1312 13.4756C11.2505 13.1111 11.4196 12.8161 11.6383 12.5907C11.8571 12.3653 12.1206 12.1598 12.4288 11.9742C12.6277 11.8483 12.8066 11.7074 12.9657 11.5516C13.1248 11.3959 13.2508 11.2169 13.3436 11.0147C13.4364 10.8125 13.4828 10.5888 13.4828 10.3435C13.4828 10.0486 13.4132 9.79335 13.274 9.57792C13.1348 9.36248 12.9492 9.19676 12.7172 9.08076C12.4885 8.96144 12.2333 8.90178 11.9515 8.90178C11.6963 8.90178 11.4527 8.95481 11.2207 9.06087C10.9887 9.16693 10.7965 9.33265 10.644 9.55803C10.4915 9.7801 10.4037 10.0668 10.3805 10.4181H8.86914C8.89234 9.82153 9.04315 9.31774 9.32156 8.90675C9.59996 8.49245 9.96786 8.17924 10.4252 7.96712C10.8859 7.755 11.3947 7.64894 11.9515 7.64894C12.5614 7.64894 13.095 7.76329 13.5524 7.99198C14.0098 8.21736 14.3644 8.53388 14.6163 8.94156C14.8715 9.34591 14.9991 9.81821 14.9991 10.3585C14.9991 10.7297 14.9411 11.0644 14.8251 11.3627C14.7091 11.6577 14.5434 11.9212 14.3279 12.1532C14.1158 12.3852 13.8606 12.5907 13.5623 12.7697C13.2806 12.9453 13.0519 13.1276 12.8762 13.3166C12.7039 13.5055 12.5779 13.7292 12.4984 13.9877C12.4189 14.2462 12.3758 14.5661 12.3691 14.9472V15.0417H10.9473ZM11.698 18.0644C11.4262 18.0644 11.1925 17.9683 10.997 17.7761C10.8014 17.5805 10.7037 17.3452 10.7037 17.0701C10.7037 16.7983 10.8014 16.5663 10.997 16.3741C11.1925 16.1785 11.4262 16.0808 11.698 16.0808C11.9664 16.0808 12.1984 16.1785 12.394 16.3741C12.5929 16.5663 12.6923 16.7983 12.6923 17.0701C12.6923 17.2524 12.6459 17.4198 12.5531 17.5722C12.4636 17.7214 12.3443 17.8407 12.1951 17.9302C12.046 18.0197 11.8803 18.0644 11.698 18.0644Z" fill="#313131"/>
</svg>
