<svg width="24" height="25" viewBox="0 0 24 25" fill="none" xmlns="http://www.w3.org/2000/svg">
  <path
    d="M8 13.5C6.14 13.5 4.59 14.78 4.14 16.5H3C2.44772 16.5 2 16.9477 2 17.5C2 18.0523 2.44772 18.5 3 18.5H4.14C4.59 20.22 6.14 21.5 8 21.5C9.86 21.5 11.41 20.22 11.86 18.5H21C21.5523 18.5 22 18.0523 22 17.5C22 16.9477 21.5523 16.5 21 16.5H11.86C11.41 14.78 9.86 13.5 8 13.5ZM8 19.5C6.9 19.5 6 18.6 6 17.5C6 16.4 6.9 15.5 8 15.5C9.1 15.5 10 16.4 10 17.5C10 18.6 9.1 19.5 8 19.5ZM19.86 6.5C19.41 4.78 17.86 3.5 16 3.5C14.14 3.5 12.59 4.78 12.14 6.5H3C2.44771 6.5 2 6.94772 2 7.5C2 8.05228 2.44772 8.5 3 8.5H12.14C12.59 10.22 14.14 11.5 16 11.5C17.86 11.5 19.41 10.22 19.86 8.5H21C21.5523 8.5 22 8.05228 22 7.5C22 6.94772 21.5523 6.5 21 6.5H19.86ZM16 9.5C14.9 9.5 14 8.6 14 7.5C14 6.4 14.9 5.5 16 5.5C17.1 5.5 18 6.4 18 7.5C18 8.6 17.1 9.5 16 9.5Z"
    fill="#313131"/>
</svg>
