<svg width="0.9375em" height="1em" viewBox="0 0 15 16" fill="none" xmlns="http://www.w3.org/2000/svg">
  <path
    d="M7.5 5.97852C7.80273 5.97852 8.05176 5.88086 8.24707 5.68555C8.45215 5.49023 8.55469 5.24609 8.55469 4.95312C8.55469 4.65039 8.45215 4.40137 8.24707 4.20605C8.05176 4.01074 7.80273 3.91309 7.5 3.91309C7.20703 3.91309 6.95801 4.01074 6.75293 4.20605C6.55762 4.40137 6.45996 4.65039 6.45996 4.95312C6.45996 5.23633 6.5625 5.48047 6.76758 5.68555C6.98242 5.88086 7.22656 5.97852 7.5 5.97852ZM0 8C0 6.64258 0.336914 5.39258 1.01074 4.25C1.68457 3.09766 2.59766 2.18457 3.75 1.51074C4.90234 0.836914 6.15234 0.5 7.5 0.5C8.86719 0.5 10.1221 0.836914 11.2646 1.51074C12.417 2.18457 13.3252 3.09766 13.9893 4.25C14.6631 5.39258 15 6.64258 15 8C15 9.35742 14.6631 10.6123 13.9893 11.7646C13.3252 12.9072 12.417 13.8154 11.2646 14.4893C10.1221 15.1631 8.86719 15.5 7.5 15.5C6.15234 15.5 4.90234 15.1631 3.75 14.4893C2.59766 13.8154 1.68457 12.9072 1.01074 11.7646C0.336914 10.6123 0 9.35742 0 8ZM6.66504 11.2666C6.66504 11.4912 6.75293 11.6914 6.92871 11.8672C7.10449 12.0332 7.31445 12.126 7.55859 12.1455C7.80273 12.1455 8.0127 12.0625 8.18848 11.8965C8.36426 11.7207 8.45215 11.5107 8.45215 11.2666V7.80957C8.45215 7.55566 8.36426 7.3457 8.18848 7.17969C8.02246 7.00391 7.8125 6.91602 7.55859 6.91602C7.31445 6.91602 7.10449 7.00391 6.92871 7.17969C6.75293 7.3457 6.66504 7.55566 6.66504 7.80957V11.2666Z"
    fill="currentColor"/>
</svg>
