<svg width="1em" height="1em" viewBox="0 0 56 56" fill="none" xmlns="http://www.w3.org/2000/svg">
<path d="M46.2 6.46884C41.2417 2.36536 35.2139 0.193105 29.0889 0L14.7 37.8L46.2 6.46884Z" fill="white"/>
<path d="M46.2 6.46884C41.2417 2.36536 35.2139 0.193105 29.0889 0L14.7 37.8L46.2 6.46884Z" fill="url(#paint0_linear_2713_21194)"/>
<path d="M49.4763 9.8L31.5 28.0001L49.4763 46.2C58.1746 35.7301 58.1746 20.3677 49.4763 9.8Z" fill="white"/>
<path d="M49.4763 9.8L31.5 28.0001L49.4763 46.2C58.1746 35.7301 58.1746 20.3677 49.4763 9.8Z" fill="url(#paint1_linear_2713_21194)"/>
<path d="M21.7 4.2L0.0555439 26.0762C-0.372588 32.9034 1.67294 39.8748 6.23968 45.5L21.7 4.2Z" fill="white"/>
<path d="M21.7 4.2L0.0555439 26.0762C-0.372588 32.9034 1.67294 39.8748 6.23968 45.5L21.7 4.2Z" fill="url(#paint2_linear_2713_21194)"/>
<path d="M28 31.5L9.8 49.4763C20.3188 58.1746 35.6812 58.1746 46.2 49.4763L28 31.5Z" fill="white"/>
<path d="M28 31.5L9.8 49.4763C20.3188 58.1746 35.6812 58.1746 46.2 49.4763L28 31.5Z" fill="url(#paint3_linear_2713_21194)"/>
<defs>
<linearGradient id="paint0_linear_2713_21194" x1="28" y1="31.5" x2="28" y2="56" gradientUnits="userSpaceOnUse">
<stop stop-color="#82897E"/>
<stop offset="1" stop-color="#646A60"/>
</linearGradient>
<linearGradient id="paint1_linear_2713_21194" x1="28" y1="31.5" x2="28" y2="56" gradientUnits="userSpaceOnUse">
<stop stop-color="#82897E"/>
<stop offset="1" stop-color="#646A60"/>
</linearGradient>
<linearGradient id="paint2_linear_2713_21194" x1="28" y1="31.5" x2="28" y2="56" gradientUnits="userSpaceOnUse">
<stop stop-color="#82897E"/>
<stop offset="1" stop-color="#646A60"/>
</linearGradient>
<linearGradient id="paint3_linear_2713_21194" x1="28" y1="31.5" x2="28" y2="56" gradientUnits="userSpaceOnUse">
<stop stop-color="#82897E"/>
<stop offset="1" stop-color="#646A60"/>
</linearGradient>
</defs>
</svg>
