<svg width="1.4375em" height="1em" viewBox="0 0 23 16" xmlns="http://www.w3.org/2000/svg">
  <path
    d="M18.5 4L14.5 8H17.5C17.5 9.5913 16.8679 11.1174 15.7426 12.2426C14.6174 13.3679 13.0913 14 11.5 14C10.5 14 9.53 13.75 8.7 13.3L7.24 14.76C8.47 15.54 9.93 16 11.5 16C13.6217 16 15.6566 15.1571 17.1569 13.6569C18.6571 12.1566 19.5 10.1217 19.5 8H22.5M5.5 8C5.5 6.4087 6.13214 4.88258 7.25736 3.75736C8.38258 2.63214 9.9087 2 11.5 2C12.5 2 13.47 2.25 14.3 2.7L15.76 1.24C14.53 0.46 13.07 0 11.5 0C9.37827 0 7.34344 0.842855 5.84315 2.34315C4.34285 3.84344 3.5 5.87827 3.5 8H0.5L4.5 12L8.5 8"
    fill="currentColor" />
</svg>
