<svg
  width="18"
  height="19"
  viewBox="0 0 18 19"
  fill="none"
  xmlns="http://www.w3.org/2000/svg"
>
  <path
    fill-rule="evenodd"
    clip-rule="evenodd"
    d="M16 7.12305H2L2 16.123H16V7.12305ZM2 5.12305C0.895431 5.12305 0 6.01848 0 7.12305V16.123C0 17.2276 0.89543 18.123 2 18.123H16C17.1046 18.123 18 17.2276 18 16.123V7.12305C18 6.01848 17.1046 5.12305 16 5.12305H2Z"
    fill="#ADB9CE"
  />
  <path
    fill-rule="evenodd"
    clip-rule="evenodd"
    d="M2 6.4696L14 2.00179V6.03616H16V2.00179C16 0.607379 14.6089 -0.359051 13.3022 0.127486L1.30216 4.5953C0.519254 4.88679 0 5.63419 0 6.46961V16.123C0 17.2276 0.895431 18.123 2 18.123H8V16.123H2V6.4696Z"
    fill="#ADB9CE"
  />
  <circle
    cx="13.5176"
    cy="11.6407"
    r="1.5"
    fill="#ADB9CE"
  />
</svg>
